<?xml version="1.0" encoding="UTF-8" standalone="no"?>
<!-- Generator: Adobe Illustrator 13.0.2, SVG Export Plug-In . SVG Version: 6.00 Build 14948)  -->

<svg
   xmlns:dc="http://purl.org/dc/elements/1.1/"
   xmlns:cc="http://creativecommons.org/ns#"
   xmlns:rdf="http://www.w3.org/1999/02/22-rdf-syntax-ns#"
   xmlns:svg="http://www.w3.org/2000/svg"
   xmlns="http://www.w3.org/2000/svg"
   xmlns:xlink="http://www.w3.org/1999/xlink"
   xmlns:sodipodi="http://sodipodi.sourceforge.net/DTD/sodipodi-0.dtd"
   xmlns:inkscape="http://www.inkscape.org/namespaces/inkscape"
   id="Foreground"
   enable-background="new 0 0 16 16"
   xml:space="preserve"
   height="16"
   viewBox="0 0 11.636363 11.636363"
   width="16"
   version="1.0"
   y="0px"
   x="0px"
   inkscape:version="0.48.2 r9819"
   sodipodi:docname="check-selected.svg"><sodipodi:namedview
   pagecolor="#ffffff"
   bordercolor="#666666"
   borderopacity="1"
   objecttolerance="10"
   gridtolerance="10"
   guidetolerance="10"
   inkscape:pageopacity="0"
   inkscape:pageshadow="2"
   inkscape:window-width="1920"
   inkscape:window-height="1028"
   id="namedview20"
   showgrid="true"
   inkscape:zoom="22.513368"
   inkscape:cx="-20.835275"
   inkscape:cy="8.603771"
   inkscape:window-x="0"
   inkscape:window-y="24"
   inkscape:window-maximized="1"
   inkscape:current-layer="Foreground"><inkscape:grid
     type="xygrid"
     id="grid3066"
     empspacing="8"
     visible="true"
     enabled="true"
     snapvisiblegridlinesonly="true" /></sodipodi:namedview><metadata
   id="metadata2399"><rdf:RDF><cc:Work
       rdf:about=""><dc:format>image/svg+xml</dc:format><dc:type
         rdf:resource="http://purl.org/dc/dcmitype/StillImage" /><dc:title /></cc:Work></rdf:RDF></metadata><defs
   id="defs2397"><linearGradient
     inkscape:collect="always"
     id="linearGradient3884"><stop
       style="stop-color:#0099cc;stop-opacity:1;"
       offset="0"
       id="stop3886" /><stop
       style="stop-color:#0099cc;stop-opacity:0;"
       offset="1"
       id="stop3888" /></linearGradient><linearGradient
     id="linearGradient3824"><stop
       style="stop-color:#33b5e5;stop-opacity:1;"
       offset="0"
       id="stop3826" /><stop
       style="stop-color:#33b5e5;stop-opacity:0.54198474;"
       offset="1"
       id="stop3828" /></linearGradient><linearGradient
     id="linearGradient3815"><stop
       id="stop3817"
       offset="0"
       style="stop-color:#e6e6e6;stop-opacity:1;" /><stop
       id="stop3819"
       offset="1"
       style="stop-color:#ffffff;stop-opacity:1;" /></linearGradient><linearGradient
     inkscape:collect="always"
     id="linearGradient3833"><stop
       style="stop-color:#000000;stop-opacity:1;"
       offset="0"
       id="stop3836" /><stop
       style="stop-color:#000000;stop-opacity:0;"
       offset="1"
       id="stop3838" /></linearGradient><linearGradient
     id="linearGradient3808"><stop
       style="stop-color:#d2d2d2;stop-opacity:1;"
       offset="0"
       id="stop3810" /><stop
       style="stop-color:#f0f0f0;stop-opacity:1;"
       offset="1"
       id="stop3812" /></linearGradient><linearGradient
     id="linearGradient3786"><stop
       id="stop3788"
       offset="0"
       style="stop-color:#1e1e1e;stop-opacity:1;" /><stop
       id="stop3790"
       offset="1"
       style="stop-color:#505050;stop-opacity:1;" /></linearGradient><filter
     id="filter16494-4"
     width="1.4198"
     y="-0.20904"
     x="-0.20990001"
     height="1.4181"
     color-interpolation-filters="sRGB"><feGaussianBlur
       id="feGaussianBlur16496-8"
       stdDeviation="1.3282637" /></filter><radialGradient
     id="radialGradient16504-1"
     gradientUnits="userSpaceOnUse"
     cy="5.8190999"
     cx="7.6582999"
     gradientTransform="matrix(1.0474,0,0,1.0517,-0.36326,-0.42032)"
     r="8.6928997"><stop
       id="stop16500-8"
       style="stop-color:#7b7b7b"
       offset="0" /><stop
       id="stop16502-0"
       style="stop-color:#101010"
       offset="1" /></radialGradient><filter
     id="filter16524-9"
     width="1.426"
     y="-0.21306001"
     x="-0.21298"
     height="1.4261"
     color-interpolation-filters="sRGB"><feGaussianBlur
       id="feGaussianBlur16526-0"
       stdDeviation="0.71020915" /></filter><clipPath
     clipPathUnits="userSpaceOnUse"
     id="clipPath2849"><rect
       ry="2"
       rx="2"
       y="1"
       x="1"
       height="20"
       width="20"
       id="rect2851"
       style="fill:#ffffff;fill-opacity:1;fill-rule:evenodd;stroke:none;display:inline" /></clipPath><linearGradient
     gradientTransform="matrix(0.87272718,0,0,0.87272718,2.036363,2.0363654)"
     inkscape:collect="always"
     xlink:href="#linearGradient3831"
     id="linearGradient3845"
     x1="11"
     y1="19.5"
     x2="21"
     y2="19.5"
     gradientUnits="userSpaceOnUse"
     spreadMethod="reflect" /><linearGradient
     id="linearGradient3831"><stop
       style="stop-color:#ffffff;stop-opacity:1;"
       offset="0"
       id="stop3833" /><stop
       id="stop3821"
       offset="0.75"
       style="stop-color:#ffffff;stop-opacity:0.49803922;" /><stop
       style="stop-color:#ffffff;stop-opacity:0;"
       offset="1"
       id="stop3835" /></linearGradient><linearGradient
     gradientTransform="matrix(0.87272718,0,0,0.87272718,2.036363,2.0363654)"
     y2="16"
     x2="10"
     y1="1"
     x1="10"
     gradientUnits="userSpaceOnUse"
     id="linearGradient3101"
     xlink:href="#linearGradient3823"
     inkscape:collect="always" /><linearGradient
     id="linearGradient3823"><stop
       id="stop3825"
       offset="0"
       style="stop-color:#ffffff;stop-opacity:1;" /><stop
       id="stop3829"
       offset="1"
       style="stop-color:#ffffff;stop-opacity:0;" /></linearGradient><linearGradient
     inkscape:collect="always"
     xlink:href="#linearGradient3786"
     id="linearGradient3181"
     x1="-3.0607977"
     y1="27.258198"
     x2="-3.0607977"
     y2="7.2536583"
     gradientUnits="userSpaceOnUse"
     gradientTransform="matrix(0.87272718,0,0,0.87272718,11.740542,-3.425334)" /><linearGradient
     id="linearGradient3257"><stop
       style="stop-color:#a50000;stop-opacity:1;"
       offset="0"
       id="stop3259" /><stop
       style="stop-color:#e73800;stop-opacity:1;"
       offset="1"
       id="stop3261" /></linearGradient><linearGradient
     inkscape:collect="always"
     xlink:href="#linearGradient3786"
     id="linearGradient3796"
     gradientUnits="userSpaceOnUse"
     gradientTransform="matrix(0.87272718,0,0,0.87272718,11.740542,-3.425334)"
     x1="-3.0607977"
     y1="27.258198"
     x2="-3.0607977"
     y2="7.2536583" /><linearGradient
     inkscape:collect="always"
     xlink:href="#linearGradient3786"
     id="linearGradient3800"
     gradientUnits="userSpaceOnUse"
     gradientTransform="matrix(0.87272718,0,0,0.87272718,11.740542,-3.425334)"
     x1="-3.0607977"
     y1="27.258198"
     x2="-3.0607977"
     y2="7.2536583" /><linearGradient
     inkscape:collect="always"
     xlink:href="#linearGradient3786"
     id="linearGradient3805"
     gradientUnits="userSpaceOnUse"
     gradientTransform="matrix(1.1999999,0,0,1.1999999,16.143245,-4.7098343)"
     x1="-3.0607977"
     y1="27.258198"
     x2="-3.0607977"
     y2="7.2536583" /><linearGradient
     inkscape:collect="always"
     xlink:href="#linearGradient3808"
     id="linearGradient3814"
     gradientUnits="userSpaceOnUse"
     gradientTransform="matrix(1.1999999,0,0,1.1999999,16.143245,-4.7098343)"
     x1="-3.0607977"
     y1="27.258198"
     x2="-3.0607977"
     y2="7.2536583" /><linearGradient
     inkscape:collect="always"
     xlink:href="#linearGradient3786"
     id="linearGradient3818"
     gradientUnits="userSpaceOnUse"
     gradientTransform="matrix(0.87272718,0,0,0.87272718,11.740542,-3.425334)"
     x1="-3.0607977"
     y1="27.258198"
     x2="-3.0607977"
     y2="7.2536583" /><linearGradient
     inkscape:collect="always"
     xlink:href="#linearGradient3786"
     id="linearGradient3822"
     gradientUnits="userSpaceOnUse"
     gradientTransform="matrix(1.1999999,0,0,1.1999999,16.143245,-4.7098343)"
     x1="-3.0607977"
     y1="27.258198"
     x2="-3.0607977"
     y2="7.2536583" /><linearGradient
     inkscape:collect="always"
     xlink:href="#linearGradient3786"
     id="linearGradient3826"
     gradientUnits="userSpaceOnUse"
     gradientTransform="matrix(0.87272718,0,0,0.87272718,11.740542,-3.425334)"
     x1="-3.0607977"
     y1="27.258198"
     x2="-3.0607977"
     y2="7.2536583" /><linearGradient
     inkscape:collect="always"
     xlink:href="#linearGradient3786"
     id="linearGradient3830"
     gradientUnits="userSpaceOnUse"
     gradientTransform="matrix(0.87272718,0,0,0.87272718,11.740542,-3.425334)"
     x1="-3.0607977"
     y1="27.258198"
     x2="-3.0607977"
     y2="7.2536583" /><linearGradient
     inkscape:collect="always"
     xlink:href="#linearGradient3833"
     id="linearGradient3840"
     x1="15"
     y1="6"
     x2="15"
     y2="35"
     gradientUnits="userSpaceOnUse" /><radialGradient
     inkscape:collect="always"
     xlink:href="#linearGradient3824"
     id="radialGradient3830"
     cx="16"
     cy="16"
     fx="16"
     fy="16"
     r="9"
     gradientUnits="userSpaceOnUse" /><linearGradient
     inkscape:collect="always"
     xlink:href="#linearGradient3812"
     id="linearGradient3819"
     x1="8"
     y1="12"
     x2="16"
     y2="12"
     gradientUnits="userSpaceOnUse"
     gradientTransform="matrix(0,0.72727269,-0.72727269,0,15.999998,1.4545448)" /><linearGradient
     id="linearGradient3812"><stop
       style="stop-color:#ffffff;stop-opacity:1;"
       offset="0"
       id="stop3814" /><stop
       id="stop3822"
       offset="0.5"
       style="stop-color:#5a96ab;stop-opacity:0;" /><stop
       style="stop-color:#005d7d;stop-opacity:1;"
       offset="1"
       id="stop3816" /></linearGradient><clipPath
     clipPathUnits="userSpaceOnUse"
     id="clipPath3878"><rect
       style="color:#000000;fill:#ff00ff;fill-opacity:1;fill-rule:nonzero;stroke:none;stroke-width:2;marker:none;visibility:visible;display:inline;overflow:visible;enable-background:accumulate"
       id="rect3880"
       width="11.636363"
       height="11.636363"
       x="-21.81818"
       y="0" /></clipPath><radialGradient
     inkscape:collect="always"
     xlink:href="#linearGradient3884"
     id="radialGradient3890"
     cx="6"
     cy="8"
     fx="6"
     fy="8"
     r="5"
     gradientUnits="userSpaceOnUse"
     gradientTransform="matrix(1.4,0,0,1.4,-2.3999999,-3.2)" /></defs>
<rect
   style="opacity:0.3;color:#000000;fill:url(#radialGradient3890);fill-opacity:1;fill-rule:nonzero;stroke:none;stroke-width:2;marker:none;visibility:visible;display:inline;overflow:visible;enable-background:accumulate"
   id="rect3882"
   width="11"
   height="11"
   x="1"
   y="3"
   transform="scale(0.72727269,0.72727269)" /><path
   sodipodi:type="inkscape:offset"
   inkscape:radius="-0.19115727"
   inkscape:original="M 9.34375 -0.03125 A 0.7458712 0.7458712 0 0 0 8.9375 0.1875 L 4.375 4.75 L 3.4375 3.84375 A 0.7458712 0.7458712 0 0 0 2.375 3.84375 L 0.9375 5.28125 A 0.7458712 0.7458712 0 0 0 0.9375 6.34375 L 3.84375 9.25 A 0.7458712 0.7458712 0 0 0 4.90625 9.25 L 11.4375 2.71875 A 0.7458712 0.7458712 0 0 0 11.4375 1.65625 L 10 0.1875 A 0.7458712 0.7458712 0 0 0 9.40625 -0.03125 A 0.7458712 0.7458712 0 0 0 9.34375 -0.03125 z "
   style="opacity:0.45;fill:#000000;fill-opacity:1;stroke:none"
   id="path3814"
   d="m 9.34375,0.15625 c -0.011871,0.003134 -0.019512,0.0276522 -0.03125,0.03125 -0.011738,0.003598 -0.019662,-0.004056 -0.03125,0 -0.01142,0.004509 -0.020016,-0.004954 -0.03125,0 -0.011234,0.004954 -0.02022,0.0258586 -0.03125,0.03125 -0.01081,0.005821 -0.020677,-0.006241 -0.03125,0 -0.010573,0.006241 0.010319,0.0245983 0,0.03125 -0.010319,0.006652 -0.0212,-0.007052 -0.03125,0 -0.00977,0.007442 -0.021785,0.0234304 -0.03125,0.03125 -0.00947,0.00782 -0.022099,-0.008185 -0.03125,0 -0.00915,0.008185 0.00882,0.0227112 0,0.03125 -0.00882,0.008539 -0.022771,-0.008879 -0.03125,0 L 4.5,4.875 A 0.19117638,0.19117638 0 0 1 4.46875,4.90625 0.19117638,0.19117638 0 0 1 4.4375,4.9375 a 0.19117638,0.19117638 0 0 1 -0.03125,0 0.19117638,0.19117638 0 0 1 -0.0625,0 0.19117638,0.19117638 0 0 1 -0.03125,0 A 0.19117638,0.19117638 0 0 1 4.25,4.90625 0.19117638,0.19117638 0 0 1 4.25,4.875 L 3.3125,3.96875 c -0.00543,-0.00551 -0.025684,0.00537 -0.03125,0 -0.0057,-0.00524 0.00583,-0.026158 0,-0.03125 -0.00583,-0.00509 -0.0253,0.00495 -0.03125,0 -0.00619,-0.00465 -0.02495,-0.026759 -0.03125,-0.03125 -0.00652,-0.00417 -0.024634,0.00401 -0.03125,0 -0.00662,-0.00401 0.00671,-0.027404 0,-0.03125 -0.00671,-0.00385 -0.024443,0.00368 -0.03125,0 -0.00698,-0.00334 -0.024189,0.00316 -0.03125,0 -0.00706,-0.00316 0.00714,-0.028263 0,-0.03125 -0.00714,-0.00299 -0.024041,0.00281 -0.03125,0 -0.00734,-0.00245 -0.023852,0.00227 -0.03125,0 -0.00745,-0.00208 -0.023749,0.0019 -0.03125,0 -0.0075,-0.0019 0.00755,-0.029539 0,-0.03125 -0.00755,-0.00171 -0.023664,0.00152 -0.03125,0 -0.00765,-0.00115 -0.023572,9.559e-4 -0.03125,0 -0.0077,-7.654e-4 -0.023534,5.745e-4 -0.03125,0 -0.00773,-3.832e-4 -0.023515,1.917e-4 -0.03125,0 -0.00773,1.917e-4 -0.023522,-3.832e-4 -0.03125,0 -0.00772,5.745e-4 -0.023551,-7.654e-4 -0.03125,0 -0.00768,9.559e-4 -0.023598,-0.00115 -0.03125,0 -0.00759,0.00152 -0.023704,-0.00171 -0.03125,0 -0.00755,0.00171 0.0075,0.029353 0,0.03125 -0.0075,0.0019 -0.023798,-0.00208 -0.03125,0 -0.0074,0.00227 -0.02391,-0.00245 -0.03125,0 -0.00721,0.00281 -0.024113,-0.00299 -0.03125,0 -0.00714,0.00299 0.00706,0.028087 0,0.03125 -0.00706,0.00316 -0.024269,-0.00334 -0.03125,0 -0.00681,0.00368 -0.024536,-0.00385 -0.03125,0 -0.00671,0.00385 0.00662,0.027239 0,0.03125 -0.00662,0.00401 -0.024735,-0.00417 -0.03125,0 -0.0063,0.00449 -0.025063,0.026604 -0.03125,0.03125 -0.00595,0.00495 -0.025425,-0.00509 -0.03125,0 -0.00583,0.00509 0.0057,0.026015 0,0.03125 -0.00557,0.00537 -0.025819,-0.00551 -0.03125,0 l -1.4375,1.4375 c -0.00551,0.00543 0.00537,0.025684 0,0.03125 -0.00524,0.0057 -0.026158,-0.00583 -0.03125,0 -0.00509,0.00583 0.00495,0.0253 0,0.03125 C 1.026604,5.4749372 1.0044913,5.4936996 1,5.5 c -0.004174,0.00652 0.00401,0.024634 0,0.03125 -0.004011,0.00662 -0.027404,-0.00671 -0.03125,0 -0.003846,0.00671 0.003678,0.024443 0,0.03125 -0.003337,0.00698 0.003163,0.024189 0,0.03125 -0.003163,0.00706 -0.0282629,-0.00714 -0.03125,0 -0.002987,0.00714 0.002809,0.024041 0,0.03125 -0.002449,0.00734 0.002266,0.023852 0,0.03125 -0.002082,0.00745 0.001897,0.023749 0,0.03125 -0.001897,0.0075 -0.0295392,-0.00755 -0.03125,0 -0.001711,0.00755 0.001523,0.023664 0,0.03125 -0.001146,0.00765 9.559e-4,0.023572 0,0.03125 -7.6543e-4,0.0077 5.7448e-4,0.023534 0,0.03125 -3.8318e-4,0.00773 1.9165e-4,0.023515 0,0.03125 1.9165e-4,0.00774 -3.8318e-4,0.023522 0,0.03125 5.7448e-4,0.00772 -7.6543e-4,0.023551 0,0.03125 9.559e-4,0.00768 -0.001146,0.023598 0,0.03125 0.001523,0.00759 -0.001711,0.023704 0,0.03125 0.001711,0.00755 0.0293528,-0.0075 0.03125,0 0.001897,0.0075 -0.002082,0.023798 0,0.03125 0.002266,0.0074 -0.002449,0.02391 0,0.03125 0.002809,0.00721 -0.002987,0.024113 0,0.03125 0.002987,0.00714 0.0280871,-0.00706 0.03125,0 0.003163,0.00706 -0.003337,0.024269 0,0.03125 0.003678,0.00681 -0.003846,0.024536 0,0.03125 0.003846,0.00671 0.0272389,-0.00662 0.03125,0 0.00401,0.00662 -0.004174,0.024735 0,0.03125 0.00449,0.0063 0.026604,0.025063 0.03125,0.03125 0.00495,0.00595 -0.00509,0.025425 0,0.03125 0.00509,0.00583 0.026015,-0.0057 0.03125,0 0.00537,0.00557 -0.00551,0.025819 0,0.03125 L 3.96875,9.125 c 0.00543,0.00551 0.025684,-0.00537 0.03125,0 0.0057,0.00524 -0.00583,0.026158 0,0.03125 0.00583,0.00509 0.0253,-0.00495 0.03125,0 0.00619,0.00465 0.02495,0.026759 0.03125,0.03125 0.00652,0.00417 0.024634,-0.00401 0.03125,0 0.00662,0.00401 -0.00671,0.027404 0,0.03125 0.00671,0.00385 0.024443,-0.00368 0.03125,0 0.00698,0.00334 0.024189,-0.00316 0.03125,0 0.00706,0.00316 -0.00714,0.028263 0,0.03125 0.00714,0.00299 0.024041,-0.00281 0.03125,0 0.00734,0.00245 0.023852,-0.00227 0.03125,0 0.00745,0.00208 0.023749,-0.0019 0.03125,0 0.0075,0.0019 -0.00755,0.029539 0,0.03125 0.00755,0.00171 0.023664,-0.00152 0.03125,0 0.00765,0.00115 0.023572,-9.559e-4 0.03125,0 0.0077,7.654e-4 0.023534,-5.745e-4 0.03125,0 0.00773,3.832e-4 0.023515,-1.917e-4 0.03125,0 0.00774,-1.917e-4 0.023522,3.832e-4 0.03125,0 0.00772,-5.745e-4 0.023551,7.654e-4 0.03125,0 0.00768,-9.559e-4 0.023598,0.00115 0.03125,0 0.00759,-0.00152 0.023704,0.00171 0.03125,0 0.00755,-0.00171 -0.0075,-0.029353 0,-0.03125 0.0075,-0.0019 0.023798,0.00208 0.03125,0 0.0074,-0.00227 0.02391,0.00245 0.03125,0 0.00721,-0.00281 0.024113,0.00299 0.03125,0 0.00714,-0.00299 -0.00706,-0.028087 0,-0.03125 0.00706,-0.00316 0.024269,0.00334 0.03125,0 0.00681,-0.00368 0.024536,0.00385 0.03125,0 0.00671,-0.00385 -0.00662,-0.027239 0,-0.03125 0.00662,-0.00401 0.024735,0.00417 0.03125,0 0.0063,-0.00449 0.025063,-0.026604 0.03125,-0.03125 0.00595,-0.00495 0.025425,0.00509 0.03125,0 0.00583,-0.00509 -0.0057,-0.026015 0,-0.03125 0.00557,-0.00537 0.025819,0.00551 0.03125,0 L 11.3125,2.59375 c 0.0055,-0.00543 -0.0054,-0.025684 0,-0.03125 0.0052,-0.0057 0.02616,0.00583 0.03125,0 0.0051,-0.00583 -0.0049,-0.0253 0,-0.03125 0.0046,-0.00619 0.02676,-0.02495 0.03125,-0.03125 0.0042,-0.00652 -0.004,-0.024634 0,-0.03125 0.004,-0.00662 0.0274,0.00671 0.03125,0 0.0038,-0.00671 -0.0037,-0.024443 0,-0.03125 0.0033,-0.00698 -0.0032,-0.024189 0,-0.03125 0.0032,-0.00706 0.02826,0.00714 0.03125,0 0.003,-0.00714 -0.0028,-0.024041 0,-0.03125 0.0024,-0.00734 -0.0023,-0.023852 0,-0.03125 0.0021,-0.00745 -0.0019,-0.023749 0,-0.03125 0.0019,-0.0075 0.02954,0.00755 0.03125,0 0.0017,-0.00755 -0.0015,-0.023664 0,-0.03125 0.0011,-0.00765 -9.56e-4,-0.023572 0,-0.03125 7.65e-4,-0.0077 -5.74e-4,-0.023534 0,-0.03125 3.83e-4,-0.00773 -1.92e-4,-0.023515 0,-0.03125 -1.92e-4,-0.00773 3.83e-4,-0.023522 0,-0.03125 -5.74e-4,-0.00772 7.65e-4,-0.023551 0,-0.03125 -9.56e-4,-0.00768 0.0011,-0.023598 0,-0.03125 -0.0015,-0.00759 0.0017,-0.023704 0,-0.03125 -0.0017,-0.00755 -0.02935,0.0075 -0.03125,0 -0.0019,-0.0075 0.0021,-0.023798 0,-0.03125 -0.0023,-0.0074 0.0024,-0.02391 0,-0.03125 -0.0028,-0.00721 0.003,-0.024112 0,-0.03125 -0.003,-0.00714 -0.02809,0.00706 -0.03125,0 -0.0032,-0.00706 0.0033,-0.024269 0,-0.03125 -0.0037,-0.00681 0.0038,-0.024536 0,-0.03125 -0.0038,-0.00671 -0.02724,0.00662 -0.03125,0 -0.004,-0.00662 0.0042,-0.024735 0,-0.03125 -0.0045,-0.0063 -0.0266,-0.025063 -0.03125,-0.03125 -0.0049,-0.00595 0.0051,-0.025425 0,-0.03125 -0.0051,-0.00583 -0.02601,0.0057 -0.03125,0 -0.0054,-0.00557 0.0055,-0.025819 0,-0.03125 L 9.875,0.3125 c -0.00601,-0.006081 -0.025073,0.005914 -0.03125,0 -0.00634,-0.005743 0.00649,-0.025683 0,-0.03125 -0.00649,-0.005567 -0.024609,0.005387 -0.03125,0 -0.00679,-0.005203 -0.024324,-0.0262343 -0.03125,-0.03125 -0.00719,-0.004629 -0.023936,0.004431 -0.03125,0 -0.00731,-0.004431 0.00743,-0.0270213 0,-0.03125 -0.00743,-0.004229 -0.023704,0.004024 -0.03125,0 -0.00775,-0.003605 -0.0234,-0.027859 -0.03125,-0.03125 -0.00794,-0.003175 -0.023226,0.002956 -0.03125,0 -0.0081,-0.002736 -0.023076,0.002513 -0.03125,0 -0.00824,-0.002288 -0.022951,0.002062 -0.03125,0 -0.0083,-0.002062 0.00835,-0.0294164 0,-0.03125 -0.00835,-0.001834 -0.02285,0.001604 -0.03125,0 -0.00844,-0.001374 -0.022775,0.001142 -0.03125,0 -0.0085,-9.0973e-4 -0.022725,6.7662e-4 -0.03125,0 -0.00854,-4.4301e-4 -0.022701,2.0906e-4 -0.03125,0 -0.00855,2.504e-5 -0.022702,-2.5913e-4 -0.03125,0 a 0.19117638,0.19117638 0 0 1 -0.03125,0 c -0.013079,-5.4844e-4 -0.01816,0 -0.03125,0 -0.01208,0.002192 -0.019265,-0.002665 -0.03125,0 z" /><path
   inkscape:connector-curvature="0"
   id="path3860"
   d="M 1.4545454,6.5454542 2.9090908,5.0909088 4.3636361,6.5454542 9.454545,1.4545454 10.90909,2.9090908 4.3636361,9.454545 z"
   style="fill:#000000;fill-opacity:1;stroke:none;opacity:0.45" /><path
   style="color:#000000;fill:#808080;fill-opacity:1;fill-rule:nonzero;stroke:none;stroke-width:2;marker:none;visibility:visible;display:inline;overflow:visible;enable-background:accumulate"
   d="m 0,2 0,13 13,0 0,-7.78125 -1,1 L 12,14 1,14 1,3 l 7.78125,0 1,-1 z"
   transform="scale(0.72727269,0.72727269)"
   id="rect3049"
   inkscape:connector-curvature="0"
   sodipodi:nodetypes="ccccccccccc" /><path
   style="fill:#0099cc;stroke:none;fill-opacity:1"
   d="M 1.4545454,5.8181815 2.9090908,4.3636361 4.3636361,5.8181815 9.454545,0.72727271 10.90909,2.1818181 4.3636361,8.7272723 z"
   id="path3049"
   inkscape:connector-curvature="0" /><path
   style="fill:#ffffff;stroke:none;fill-opacity:1;opacity:0.5"
   d="M 13 1 L 6 8 L 4 6 L 2 8 L 2.5 8.5 L 4 7 L 6 9 L 13 2 L 14.5 3.5 L 15 3 L 13 1 z "
   transform="scale(0.72727269,0.72727269)"
   id="path3075" /></svg>