<?xml version="1.0" encoding="UTF-8" standalone="no"?>
<!-- Created with Inkscape (http://www.inkscape.org/) -->

<svg
   xmlns:dc="http://purl.org/dc/elements/1.1/"
   xmlns:cc="http://creativecommons.org/ns#"
   xmlns:rdf="http://www.w3.org/1999/02/22-rdf-syntax-ns#"
   xmlns:svg="http://www.w3.org/2000/svg"
   xmlns="http://www.w3.org/2000/svg"
   xmlns:sodipodi="http://sodipodi.sourceforge.net/DTD/sodipodi-0.dtd"
   xmlns:inkscape="http://www.inkscape.org/namespaces/inkscape"
   width="32"
   height="32"
   id="svg2"
   version="1.1"
   inkscape:version="0.48.2 r9819"
   sodipodi:docname="column-header.svg">
  <defs
     id="defs4" />
  <sodipodi:namedview
     id="base"
     pagecolor="#ffffff"
     bordercolor="#666666"
     borderopacity="1.0"
     inkscape:pageopacity="0.0"
     inkscape:pageshadow="2"
     inkscape:zoom="15.327746"
     inkscape:cx="-6.2296195"
     inkscape:cy="20.755709"
     inkscape:document-units="px"
     inkscape:current-layer="layer1"
     showgrid="true"
     inkscape:showpageshadow="false"
     borderlayer="true"
     inkscape:window-width="1920"
     inkscape:window-height="1028"
     inkscape:window-x="0"
     inkscape:window-y="24"
     inkscape:window-maximized="1">
    <inkscape:grid
       type="xygrid"
       id="grid2985"
       empspacing="8"
       visible="true"
       enabled="true"
       snapvisiblegridlinesonly="true" />
  </sodipodi:namedview>
  <metadata
     id="metadata7">
    <rdf:RDF>
      <cc:Work
         rdf:about="">
        <dc:format>image/svg+xml</dc:format>
        <dc:type
           rdf:resource="http://purl.org/dc/dcmitype/StillImage" />
        <dc:title />
      </cc:Work>
    </rdf:RDF>
  </metadata>
  <g
     inkscape:label="Calque 1"
     inkscape:groupmode="layer"
     id="layer1"
     transform="translate(0,-1020.3622)">
    <path
       style="fill:#000000;stroke:none;opacity:0.1"
       d="m 32,1020.3622 0,2 -2,-2 2,0 z m -4,0 4,4 0,2 -6,-6 2,0 z m -4,0 8,8 0,2 -2,-2 -8,-8 2,0 z m -4,0 8,8 4,4 0,2 -6,-6 -8,-8 2,0 z m -4,0 8,8 8,8 0,2 -10,-10 -8,-8 2,0 z m -4,0 8,8 12,12 0,2 -14,-14 -8,-8 2,0 z m -4,0 8,8 16,16 0,2 -18,-18 -6,-6 -2,-2 2,0 z m -4,0 4,4 4,4 20,20 0,2 -22,-22 -2,-2 -6,-6 2,0 z m -4,0 8,8 24,24 -2,0 -22,-22 -2,-2 -6,-6 0,-2 z m 0,4 4,4 4,4 20,20 -2,0 -18,-18 -6,-6 -2,-2 0,-2 z m 0,4 8,8 16,16 -2,0 -14,-14 -8,-8 0,-2 z m 0,4 8,8 12,12 -2,0 -10,-10 -8,-8 0,-2 z m 0,4 8,8 8,8 -2,0 -6,-6 -8,-8 0,-2 z m 0,4 8,8 4,4 -2,0 -2,-2 -8,-8 0,-2 z m 0,4 8,8 -2,0 -6,-6 0,-2 z m 0,4 4,4 -2,0 -2,-2 0,-2 z"
       id="path3757"
       inkscape:connector-curvature="0" />
  </g>
</svg>
