<?xml version="1.0" encoding="UTF-8" standalone="no"?>
<!-- Created with Inkscape (http://www.inkscape.org/) -->

<svg
   xmlns:dc="http://purl.org/dc/elements/1.1/"
   xmlns:cc="http://creativecommons.org/ns#"
   xmlns:rdf="http://www.w3.org/1999/02/22-rdf-syntax-ns#"
   xmlns:svg="http://www.w3.org/2000/svg"
   xmlns="http://www.w3.org/2000/svg"
   xmlns:sodipodi="http://sodipodi.sourceforge.net/DTD/sodipodi-0.dtd"
   xmlns:inkscape="http://www.inkscape.org/namespaces/inkscape"
   width="36"
   height="36"
   id="svg2"
   version="1.1"
   inkscape:version="0.48.2 r9819"
   sodipodi:docname="hotplug-icon.svg">
  <defs
     id="defs4" />
  <sodipodi:namedview
     id="base"
     pagecolor="#000000"
     bordercolor="#666666"
     borderopacity="1.0"
     inkscape:pageopacity="0"
     inkscape:pageshadow="2"
     inkscape:zoom="11.334479"
     inkscape:cx="51.988841"
     inkscape:cy="4.8502327"
     inkscape:document-units="px"
     inkscape:current-layer="layer1"
     showgrid="true"
     showguides="true"
     inkscape:guide-bbox="true"
     inkscape:window-width="1920"
     inkscape:window-height="1028"
     inkscape:window-x="0"
     inkscape:window-y="24"
     inkscape:window-maximized="1"
     guidetolerance="10000"
     objecttolerance="10000"
     borderlayer="true"
     inkscape:showpageshadow="false">
    <inkscape:grid
       type="xygrid"
       id="grid3792"
       empspacing="10"
       visible="true"
       enabled="true"
       snapvisiblegridlinesonly="true" />
  </sodipodi:namedview>
  <metadata
     id="metadata7">
    <rdf:RDF>
      <cc:Work
         rdf:about="">
        <dc:format>image/svg+xml</dc:format>
        <dc:type
           rdf:resource="http://purl.org/dc/dcmitype/StillImage" />
        <dc:title />
      </cc:Work>
    </rdf:RDF>
  </metadata>
  <g
     inkscape:label="Layer 1"
     inkscape:groupmode="layer"
     id="layer1"
     transform="translate(0,26)">
    <path
       style="color:#000000;fill:#111111;fill-opacity:1;fill-rule:nonzero;stroke:none;stroke-width:2;marker:none;visibility:visible;display:inline;overflow:visible;enable-background:accumulate"
       d="M 0 0 L 0 36 L 36 36 L 36 0 L 0 0 z "
       transform="translate(0,-26)"
       id="rect2985" />
    <path
       style="opacity:0.5;fill:#808080;stroke:none"
       d="m 0,52 0,2 2,-2 -2,0 z m 4,0 -4,4 0,2 6,-6 -2,0 z m 4,0 -8,8 2,0 6,-6 0,-2 z m 0,4 -4,4 2,0 2,-2 0,-2 z"
       id="path3020"
       inkscape:connector-curvature="0" />
    <path
       style="opacity:0.3;fill:#808080;stroke:none"
       d="M 0 0 L 36 36 L 36 34 L 2 0 L 0 0 z M 4 0 L 36 32 L 36 30 L 6 0 L 4 0 z M 8 0 L 36 28 L 36 26 L 10 0 L 8 0 z M 12 0 L 36 24 L 36 22 L 14 0 L 12 0 z M 16 0 L 36 20 L 36 18 L 18 0 L 16 0 z M 20 0 L 36 16 L 36 14 L 22 0 L 20 0 z M 24 0 L 36 12 L 36 10 L 26 0 L 24 0 z M 28 0 L 36 8 L 36 6 L 30 0 L 28 0 z M 32 0 L 36 4 L 36 2 L 34 0 L 32 0 z M 0 2 L 0 4 L 32 36 L 34 36 L 0 2 z M 0 6 L 0 8 L 28 36 L 30 36 L 0 6 z M 0 10 L 0 12 L 24 36 L 26 36 L 0 10 z M 0 14 L 0 16 L 20 36 L 22 36 L 0 14 z M 0 18 L 0 20 L 16 36 L 18 36 L 0 18 z M 0 22 L 0 24 L 12 36 L 14 36 L 0 22 z M 0 26 L 0 28 L 8 36 L 10 36 L 0 26 z M 0 30 L 0 32 L 4 36 L 6 36 L 0 30 z M 0 34 L 0 36 L 2 36 L 0 34 z "
       transform="translate(0,-26)"
       id="path3030" />
  </g>
</svg>
