<?xml version="1.0" encoding="UTF-8" standalone="no"?>
<!-- Created with Inkscape (http://www.inkscape.org/) -->

<svg
   xmlns:dc="http://purl.org/dc/elements/1.1/"
   xmlns:cc="http://creativecommons.org/ns#"
   xmlns:rdf="http://www.w3.org/1999/02/22-rdf-syntax-ns#"
   xmlns:svg="http://www.w3.org/2000/svg"
   xmlns="http://www.w3.org/2000/svg"
   xmlns:sodipodi="http://sodipodi.sourceforge.net/DTD/sodipodi-0.dtd"
   xmlns:inkscape="http://www.inkscape.org/namespaces/inkscape"
   width="1024"
   height="80"
   id="svg2"
   version="1.1"
   inkscape:version="0.48.2 r9819"
   sodipodi:docname="popup-sub-menu.svg">
  <defs
     id="defs4" />
  <sodipodi:namedview
     id="base"
     pagecolor="#000000"
     bordercolor="#666666"
     borderopacity="1.0"
     inkscape:pageopacity="0"
     inkscape:pageshadow="2"
     inkscape:zoom="2.8676432"
     inkscape:cx="708.41244"
     inkscape:cy="33.325227"
     inkscape:document-units="px"
     inkscape:current-layer="layer1"
     showgrid="true"
     showguides="true"
     inkscape:guide-bbox="true"
     inkscape:window-width="1920"
     inkscape:window-height="1028"
     inkscape:window-x="0"
     inkscape:window-y="24"
     inkscape:window-maximized="1"
     guidetolerance="10000"
     objecttolerance="10000">
    <inkscape:grid
       type="xygrid"
       id="grid3792"
       empspacing="10"
       visible="true"
       enabled="true"
       snapvisiblegridlinesonly="true" />
  </sodipodi:namedview>
  <metadata
     id="metadata7">
    <rdf:RDF>
      <cc:Work
         rdf:about="">
        <dc:format>image/svg+xml</dc:format>
        <dc:type
           rdf:resource="http://purl.org/dc/dcmitype/StillImage" />
        <dc:title />
      </cc:Work>
    </rdf:RDF>
  </metadata>
  <g
     inkscape:label="Layer 1"
     inkscape:groupmode="layer"
     id="layer1"
     transform="translate(0,70)">
    <rect
       style="opacity:1;color:#000000;fill:#111111;fill-opacity:1;fill-rule:nonzero;stroke:none;stroke-width:2;marker:none;visibility:visible;display:inline;overflow:visible;enable-background:accumulate"
       id="rect2985"
       width="1024"
       height="80"
       x="0"
       y="0"
       transform="translate(0,-70)" />
    <path
       style="opacity:0.5;fill:#808080;stroke:none"
       d="m 0,52 0,2 2,-2 -2,0 z m 4,0 -4,4 0,2 6,-6 -2,0 z m 4,0 -8,8 2,0 6,-6 0,-2 z m 0,4 -4,4 2,0 2,-2 0,-2 z"
       id="path3020"
       inkscape:connector-curvature="0" />
    <path
       style="opacity:0.3;fill:#808080;stroke:none"
       d="m 1024,10 0,-2 -2,2 2,0 z m -4,0 4,-4 0,-2 -6,6 2,0 z m -4,0 8,-8 0,-2 -10,10 2,0 z m -4,0 12,-12 0,-2 -14,14 2,0 z m -4,0 16,-16 0,-2 -18,18 2,0 z m -4,0 20,-20 0,-2 -22,22 2,0 z m -4,0 24,-24 0,-2 -26,26 2,0 z m -4,0 28,-28 0,-2 -30,30 2,0 z m -4,0 32,-32 0,-2 -34,34 2,0 z m -4,0 36,-36 0,-2 -38,38 2,0 z m -4,0 40,-40 0,-2 -42,42 2,0 z m -4,0 44,-44 0,-2 -46,46 2,0 z m -4,0 48,-48 0,-2 -50,50 2,0 z m -4,0 52,-52 0,-2 -54,54 2,0 z m -4,0 56,-56 0,-2 -58,58 2,0 z m -4,0 60,-60 0,-2 -62,62 2,0 z m -4,0 64,-64 0,-2 -66,66 2,0 z m -4,0 68,-68 0,-2 -70,70 2,0 z m -4,0 72,-72 0,-2 -74,74 2,0 z m -4,0 76,-76 0,-2 -78,78 2,0 z m -4,0 80,-80 -2,0 -80,80 2,0 z m -4,0 80,-80 -2,0 -80,80 2,0 z m -4,0 80,-80 -2,0 -80,80 2,0 z m -4,0 80,-80 -2,0 -80,80 2,0 z m -4,0 80,-80 -2,0 -80,80 2,0 z m -4,0 80,-80 -2,0 -80,80 2,0 z m -4,0 80,-80 -2,0 -80,80 2,0 z m -4,0 80,-80 -2,0 -80,80 2,0 z m -4,0 80,-80 -2,0 -80,80 2,0 z m -4,0 80,-80 -2,0 -80,80 2,0 z m -4,0 80,-80 -2,0 -80,80 2,0 z m -4,0 80,-80 -2,0 -80,80 2,0 z m -4,0 80,-80 -2,0 -80,80 2,0 z m -4,0 80,-80 -2,0 -80,80 2,0 z m -4,0 80,-80 -2,0 -80,80 2,0 z m -4,0 80,-80 -2,0 -80,80 2,0 z m -4,0 80,-80 -2,0 -80,80 2,0 z m -4,0 80,-80 -2,0 -80,80 2,0 z m -4,0 80,-80 -2,0 -80,80 2,0 z m -4,0 80,-80 -2,0 -80,80 2,0 z m -4,0 80,-80 -2,0 -80,80 2,0 z m -4,0 80,-80 -2,0 -80,80 2,0 z m -4,0 80,-80 -2,0 -80,80 2,0 z m -4,0 80,-80 -2,0 -80,80 2,0 z m -4,0 80,-80 -2,0 -80,80 2,0 z m -4,0 80,-80 -2,0 -80,80 2,0 z m -4,0 80,-80 -2,0 -80,80 2,0 z m -4,0 80,-80 -2,0 -80,80 2,0 z m -4,0 80,-80 -2,0 -80,80 2,0 z m -4,0 80,-80 -2,0 -80,80 2,0 z m -4,0 80,-80 -2,0 -80,80 2,0 z m -4,0 80,-80 -2,0 -80,80 2,0 z m -4,0 80,-80 -2,0 -80,80 2,0 z m -4,0 80,-80 -2,0 -80,80 2,0 z m -4,0 80,-80 -2,0 -80,80 2,0 z m -4,0 80,-80 -2,0 -80,80 2,0 z m -4,0 80,-80 -2,0 -80,80 2,0 z m -4,0 80,-80 -2,0 -80,80 2,0 z m -4,0 80,-80 -2,0 -80,80 2,0 z m -4,0 80,-80 -2,0 -80,80 2,0 z m -4,0 80,-80 -2,0 -80,80 2,0 z m -4,0 80,-80 -2,0 -80,80 2,0 z m -4,0 80,-80 -2,0 -80,80 2,0 z m -4,0 80,-80 -2,0 -80,80 2,0 z m -4,0 80,-80 -2,0 -80,80 2,0 z m -4,0 80,-80 -2,0 -80,80 2,0 z m -4,0 80,-80 -2,0 -80,80 2,0 z m -4,0 80,-80 -2,0 -80,80 2,0 z m -4,0 80,-80 -2,0 -80,80 2,0 z m -4,0 80,-80 -2,0 -80,80 2,0 z m -4,0 80,-80 -2,0 -80,80 2,0 z m -4,0 80,-80 -2,0 -80,80 2,0 z m -4,0 80,-80 -2,0 -80,80 2,0 z m -4,0 80,-80 -2,0 -80,80 2,0 z m -4,0 80,-80 -2,0 -80,80 2,0 z m -4,0 80,-80 -2,0 -80,80 2,0 z m -4,0 80,-80 -2,0 -80,80 2,0 z m -4,0 80,-80 -2,0 -80,80 2,0 z m -4,0 80,-80 -2,0 -80,80 2,0 z m -4,0 80,-80 -2,0 -80,80 2,0 z m -4,0 80,-80 -2,0 -80,80 2,0 z m -4,0 80,-80 -2,0 -80,80 2,0 z m -4,0 80,-80 -2,0 -80,80 2,0 z m -4,0 80,-80 -2,0 -80,80 2,0 z m -4,0 80,-80 -2,0 -80,80 2,0 z m -4,0 80,-80 -2,0 -80,80 2,0 z m -4,0 80,-80 -2,0 -80,80 2,0 z m -4,0 80,-80 -2,0 -80,80 2,0 z m -4,0 80,-80 -2,0 -80,80 2,0 z m -4,0 80,-80 -2,0 -80,80 2,0 z m -4,0 80,-80 -2,0 -80,80 2,0 z m -4,0 80,-80 -2,0 -80,80 2,0 z m -4,0 80,-80 -2,0 -80,80 2,0 z m -4,0 80,-80 -2,0 -80,80 2,0 z m -4,0 80,-80 -2,0 -80,80 2,0 z m -4,0 80,-80 -2,0 -80,80 2,0 z m -4,0 80,-80 -2,0 -80,80 2,0 z m -4,0 80,-80 -2,0 -80,80 2,0 z m -4,0 80,-80 -2,0 -80,80 2,0 z m -4,0 80,-80 -2,0 -80,80 2,0 z m -4,0 80,-80 -2,0 -80,80 2,0 z m -4,0 80,-80 -2,0 -80,80 2,0 z m -4,0 80,-80 -2,0 -80,80 2,0 z m -4,0 80,-80 -2,0 -80,80 2,0 z m -4,0 80,-80 -2,0 -80,80 2,0 z m -4,0 80,-80 -2,0 -80,80 2,0 z m -4,0 80,-80 -2,0 -80,80 2,0 z m -4,0 80,-80 -2,0 -80,80 2,0 z m -4,0 80,-80 -2,0 -80,80 2,0 z m -4,0 80,-80 -2,0 -80,80 2,0 z m -4,0 80,-80 -2,0 -80,80 2,0 z m -4,0 80,-80 -2,0 -80,80 2,0 z m -4,0 80,-80 -2,0 -80,80 2,0 z m -4,0 80,-80 -2,0 -80,80 2,0 z m -4,0 80,-80 -2,0 -80,80 2,0 z m -4,0 80,-80 -2,0 -80,80 2,0 z m -4,0 80,-80 -2,0 -80,80 2,0 z m -4,0 80,-80 -2,0 -80,80 2,0 z m -4,0 80,-80 -2,0 -80,80 2,0 z m -4,0 80,-80 -2,0 -80,80 2,0 z m -4,0 80,-80 -2,0 -80,80 2,0 z m -4,0 80,-80 -2,0 -80,80 2,0 z m -4,0 80,-80 -2,0 -80,80 2,0 z m -4,0 80,-80 -2,0 -80,80 2,0 z m -4,0 80,-80 -2,0 -80,80 2,0 z m -4,0 80,-80 -2,0 -80,80 2,0 z m -4,0 80,-80 -2,0 -80,80 2,0 z m -4,0 80,-80 -2,0 -80,80 2,0 z m -4,0 80,-80 -2,0 -78,78 -2,2 2,0 z m -4,0 4,-4 76,-76 -2,0 -74,74 -6,6 2,0 z m -4,0 8,-8 72,-72 -2,0 -70,70 -10,10 2,0 z m -4,0 12,-12 68,-68 -2,0 -66,66 -14,14 2,0 z m -4,0 16,-16 64,-64 -2,0 -62,62 -18,18 2,0 z m -4,0 20,-20 60,-60 -2,0 -58,58 -22,22 2,0 z m -4,0 24,-24 56,-56 -2,0 -54,54 -26,26 2,0 z m -4,0 28,-28 52,-52 -2,0 -50,50 -30,30 2,0 z m -4,0 32,-32 48,-48 -2,0 -46,46 -34,34 2,0 z m -4,0 36,-36 44,-44 -2,0 -42,42 -38,38 2,0 z m -4,0 40,-40 40,-40 -2,0 -38,38 -42,42 2,0 z m -4,0 44,-44 36,-36 -2,0 -34,34 -46,46 2,0 z m -4,0 48,-48 32,-32 -2,0 -30,30 -50,50 2,0 z m -4,0 52,-52 28,-28 -2,0 -26,26 -54,54 2,0 z m -4,0 56,-56 24,-24 -2,0 -22,22 -58,58 2,0 z m -4,0 60,-60 20,-20 -2,0 -18,18 -62,62 2,0 z m -4,0 64,-64 16,-16 -2,0 -14,14 -66,66 2,0 z m -4,0 68,-68 12,-12 -2,0 -10,10 -70,70 2,0 z m -4,0 72,-72 8,-8 -2,0 -6,6 -74,74 2,0 z m -4,0 76,-76 4,-4 -2,0 -2,2 -78,78 2,0 z m -4,0 80,-80 -2,0 -80,80 2,0 z m -4,0 80,-80 -2,0 -80,80 2,0 z m -4,0 80,-80 -2,0 -80,80 2,0 z m -4,0 80,-80 -2,0 -80,80 2,0 z m -4,0 80,-80 -2,0 -80,80 2,0 z m -4,0 80,-80 -2,0 -80,80 2,0 z m -4,0 80,-80 -2,0 -80,80 2,0 z m -4,0 80,-80 -2,0 -80,80 2,0 z m -4,0 80,-80 -2,0 -80,80 2,0 z m -4,0 80,-80 -2,0 -80,80 2,0 z m -4,0 80,-80 -2,0 -80,80 2,0 z m -4,0 80,-80 -2,0 -80,80 2,0 z m -4,0 80,-80 -2,0 -80,80 2,0 z m -4,0 80,-80 -2,0 -80,80 2,0 z m -4,0 80,-80 -2,0 -80,80 2,0 z m -4,0 80,-80 -2,0 -80,80 2,0 z m -4,0 80,-80 -2,0 -80,80 2,0 z m -4,0 80,-80 -2,0 -80,80 2,0 z m -4,0 80,-80 -2,0 -80,80 2,0 z m -4,0 80,-80 -2,0 -80,80 2,0 z m -4,0 80,-80 -2,0 -80,80 2,0 z m -4,0 80,-80 -2,0 -80,80 2,0 z m -4,0 80,-80 -2,0 -80,80 2,0 z m -4,0 80,-80 -2,0 -80,80 2,0 z m -4,0 80,-80 -2,0 -80,80 2,0 z m -4,0 80,-80 -2,0 -80,80 2,0 z m -4,0 80,-80 -2,0 -80,80 2,0 z m -4,0 80,-80 -2,0 -80,80 2,0 z m -4,0 80,-80 -2,0 -80,80 2,0 z m -4,0 80,-80 -2,0 -80,80 2,0 z m -4,0 80,-80 -2,0 -80,80 2,0 z m -4,0 80,-80 -2,0 -80,80 2,0 z m -4,0 80,-80 -2,0 -80,80 2,0 z m -4,0 80,-80 -2,0 -80,80 2,0 z m -4,0 80,-80 -2,0 -80,80 2,0 z m -4,0 80,-80 -2,0 -80,80 2,0 z m -4,0 80,-80 -2,0 -80,80 2,0 z m -4,0 80,-80 -2,0 -80,80 2,0 z m -4,0 80,-80 -2,0 -80,80 2,0 z m -4,0 80,-80 -2,0 -80,80 2,0 z m -4,0 80,-80 -2,0 -80,80 2,0 z m -4,0 80,-80 -2,0 -80,80 2,0 z m -4,0 80,-80 -2,0 -80,80 2,0 z m -4,0 80,-80 -2,0 -80,80 2,0 z m -4,0 80,-80 -2,0 -80,80 2,0 z m -4,0 80,-80 -2,0 -80,80 2,0 z m -4,0 80,-80 -2,0 -80,80 2,0 z m -4,0 80,-80 -2,0 -80,80 2,0 z m -4,0 80,-80 -2,0 -80,80 2,0 z m -4,0 80,-80 -2,0 -80,80 2,0 z m -4,0 80,-80 -2,0 -80,80 2,0 z m -4,0 80,-80 -2,0 -80,80 2,0 z m -4,0 80,-80 -2,0 -80,80 2,0 z m -4,0 80,-80 -2,0 -80,80 2,0 z m -4,0 80,-80 -2,0 -80,80 2,0 z m -4,0 80,-80 -2,0 -80,80 2,0 z m -4,0 80,-80 -2,0 -80,80 2,0 z m -4,0 80,-80 -2,0 -80,80 2,0 z m -4,0 80,-80 -2,0 -80,80 2,0 z m -4,0 80,-80 -2,0 -80,80 2,0 z m -4,0 80,-80 -2,0 -80,80 2,0 z m -4,0 80,-80 -2,0 -80,80 2,0 z m -4,0 80,-80 -2,0 -80,80 2,0 z m -4,0 80,-80 -2,0 -80,80 2,0 z m -4,0 80,-80 -2,0 -80,80 2,0 z m -4,0 80,-80 -2,0 -80,80 2,0 z m -4,0 80,-80 -2,0 -80,80 2,0 z m -4,0 80,-80 -2,0 -80,80 2,0 z m -4,0 80,-80 -2,0 -80,80 2,0 z m -4,0 80,-80 -2,0 -80,80 2,0 z m -4,0 80,-80 -2,0 -80,80 2,0 z m -4,0 80,-80 -2,0 -80,80 2,0 z m -4,0 80,-80 -2,0 -80,80 2,0 z m -4,0 80,-80 -2,0 -80,80 2,0 z m -4,0 80,-80 -2,0 -80,80 2,0 z m -4,0 80,-80 -2,0 -80,80 2,0 z m -4,0 80,-80 -2,0 -80,80 2,0 z m -4,0 80,-80 -2,0 -80,80 2,0 z m -4,0 80,-80 -2,0 -80,80 2,0 z m -4,0 80,-80 -2,0 -80,80 2,0 z m -4,0 80,-80 -2,0 -80,80 2,0 z m -4,0 80,-80 -2,0 -80,80 2,0 z m -4,0 80,-80 -2,0 -80,80 2,0 z m -4,0 80,-80 -2,0 -80,80 2,0 z m -4,0 80,-80 -2,0 -80,80 2,0 z m -4,0 80,-80 -2,0 -80,80 2,0 z m -4,0 80,-80 -2,0 -80,80 2,0 z m -4,0 80,-80 -2,0 -80,80 2,0 z m -4,0 80,-80 -2,0 -80,80 2,0 z m -4,0 80,-80 -2,0 -80,80 2,0 z m -4,0 80,-80 -2,0 -80,80 2,0 z m -4,0 80,-80 -2,0 -80,80 2,0 z m -4,0 80,-80 -2,0 -80,80 2,0 z m -4,0 80,-80 -2,0 -80,80 2,0 z m -4,0 80,-80 -2,0 -80,80 2,0 z m -4,0 80,-80 -2,0 -80,80 2,0 z m -4,0 80,-80 -2,0 -80,80 2,0 z m -4,0 80,-80 -2,0 -80,80 2,0 z m -4,0 80,-80 -2,0 -80,80 2,0 z m -4,0 80,-80 -2,0 -80,80 2,0 z m -4,0 80,-80 -2,0 -80,80 2,0 z m -4,0 80,-80 -2,0 -80,80 2,0 z m -4,0 80,-80 -2,0 -80,80 2,0 z m -4,0 80,-80 -2,0 -80,80 2,0 z m -4,0 80,-80 -2,0 -80,80 2,0 z m -4,0 80,-80 -2,0 -80,80 2,0 z m -4,0 80,-80 -2,0 -80,80 2,0 z m -4,0 80,-80 -2,0 -80,80 2,0 z M 0,10 80,-70 78,-70 0,8 0,10 z M 0,6 76,-70 74,-70 0,4 0,6 z M 0,2 72,-70 70,-70 0,0 0,2 z m 0,-4 68,-68 -2,0 -66,66 0,2 z m 0,-4 64,-64 -2,0 -62,62 0,2 z m 0,-4 60,-60 -2,0 -58,58 0,2 z m 0,-4 56,-56 -2,0 -54,54 0,2 z m 0,-4 52,-52 -2,0 -50,50 0,2 z m 0,-4 48,-48 -2,0 -46,46 0,2 z m 0,-4 44,-44 -2,0 -42,42 0,2 z m 0,-4 40,-40 -2,0 -38,38 0,2 z m 0,-4 36,-36 -2,0 -34,34 0,2 z m 0,-4 32,-32 -2,0 -30,30 0,2 z m 0,-4 28,-28 -2,0 -26,26 0,2 z m 0,-4 24,-24 -2,0 -22,22 0,2 z m 0,-4 20,-20 -2,0 -18,18 0,2 z m 0,-4 16,-16 -2,0 -14,14 0,2 z m 0,-4 12,-12 -2,0 -10,10 0,2 z m 0,-4 8,-8 -2,0 -6,6 0,2 z m 0,-4 4,-4 -2,0 -2,2 0,2 z"
       id="path3030"
       inkscape:connector-curvature="0" />
  </g>
</svg>
