<?xml version="1.0" encoding="UTF-8" standalone="no"?>
<!-- Created with Inkscape (http://www.inkscape.org/) -->

<svg
   xmlns:dc="http://purl.org/dc/elements/1.1/"
   xmlns:cc="http://creativecommons.org/ns#"
   xmlns:rdf="http://www.w3.org/1999/02/22-rdf-syntax-ns#"
   xmlns:svg="http://www.w3.org/2000/svg"
   xmlns="http://www.w3.org/2000/svg"
   xmlns:xlink="http://www.w3.org/1999/xlink"
   xmlns:sodipodi="http://sodipodi.sourceforge.net/DTD/sodipodi-0.dtd"
   xmlns:inkscape="http://www.inkscape.org/namespaces/inkscape"
   width="48"
   height="30"
   id="svg3783"
   version="1.1"
   inkscape:version="0.48.2 r9819"
   sodipodi:docname="workspace-active.svg">
  <defs
     id="defs3785">
    <linearGradient
       id="linearGradient4313">
      <stop
         style="stop-color:#ffffff;stop-opacity:0.27450982;"
         offset="0"
         id="stop4315" />
      <stop
         style="stop-color:#ffffff;stop-opacity:0.05882353;"
         offset="1"
         id="stop4317" />
    </linearGradient>
    <linearGradient
       inkscape:collect="always"
       xlink:href="#linearGradient4313"
       id="linearGradient4319"
       x1="26"
       y1="2"
       x2="26"
       y2="20"
       gradientUnits="userSpaceOnUse" />
    <linearGradient
       inkscape:collect="always"
       xlink:href="#linearGradient4313"
       id="linearGradient4325"
       gradientUnits="userSpaceOnUse"
       x1="26"
       y1="2"
       x2="26"
       y2="20" />
    <linearGradient
       inkscape:collect="always"
       xlink:href="#linearGradient4313"
       id="linearGradient4329"
       gradientUnits="userSpaceOnUse"
       x1="26"
       y1="2"
       x2="26"
       y2="20" />
    <linearGradient
       inkscape:collect="always"
       xlink:href="#linearGradient4313"
       id="linearGradient4331"
       gradientUnits="userSpaceOnUse"
       x1="26"
       y1="2"
       x2="26"
       y2="20" />
    <linearGradient
       inkscape:collect="always"
       xlink:href="#linearGradient4313"
       id="linearGradient4350"
       gradientUnits="userSpaceOnUse"
       x1="26"
       y1="2"
       x2="26"
       y2="20"
       gradientTransform="translate(0,1020.3622)" />
    <linearGradient
       inkscape:collect="always"
       xlink:href="#linearGradient4313"
       id="linearGradient4357"
       gradientUnits="userSpaceOnUse"
       x1="26"
       y1="2"
       x2="26"
       y2="20" />
    <linearGradient
       inkscape:collect="always"
       xlink:href="#linearGradient4313"
       id="linearGradient4359"
       gradientUnits="userSpaceOnUse"
       x1="26"
       y1="2"
       x2="26"
       y2="20" />
    <linearGradient
       inkscape:collect="always"
       xlink:href="#linearGradient4313"
       id="linearGradient4416"
       gradientUnits="userSpaceOnUse"
       x1="26"
       y1="2"
       x2="26"
       y2="20"
       gradientTransform="translate(0,1030.3622)" />
    <linearGradient
       inkscape:collect="always"
       xlink:href="#linearGradient4313"
       id="linearGradient4419"
       gradientUnits="userSpaceOnUse"
       x1="26"
       y1="2"
       x2="26"
       y2="20"
       gradientTransform="translate(0,1030.3622)" />
    <linearGradient
       inkscape:collect="always"
       xlink:href="#linearGradient4313"
       id="linearGradient4433"
       gradientUnits="userSpaceOnUse"
       gradientTransform="translate(0,1030.3622)"
       x1="26"
       y1="2"
       x2="26"
       y2="20" />
    <linearGradient
       inkscape:collect="always"
       xlink:href="#linearGradient4313"
       id="linearGradient4437"
       gradientUnits="userSpaceOnUse"
       gradientTransform="translate(0,1030.3622)"
       x1="26"
       y1="2"
       x2="26"
       y2="20" />
    <linearGradient
       inkscape:collect="always"
       xlink:href="#linearGradient4313"
       id="linearGradient4439"
       gradientUnits="userSpaceOnUse"
       x1="26"
       y1="2"
       x2="26"
       y2="20" />
    <linearGradient
       inkscape:collect="always"
       xlink:href="#linearGradient4313"
       id="linearGradient4442"
       gradientUnits="userSpaceOnUse"
       x1="26"
       y1="2"
       x2="26"
       y2="30" />
    <linearGradient
       inkscape:collect="always"
       xlink:href="#linearGradient4313"
       id="linearGradient4446"
       gradientUnits="userSpaceOnUse"
       gradientTransform="translate(0,1030.3622)"
       x1="26"
       y1="-1"
       x2="26"
       y2="20" />
    <linearGradient
       inkscape:collect="always"
       xlink:href="#linearGradient4313"
       id="linearGradient3781"
       gradientUnits="userSpaceOnUse"
       gradientTransform="translate(0,1030.3622)"
       x1="26"
       y1="-1"
       x2="26"
       y2="20" />
    <linearGradient
       inkscape:collect="always"
       xlink:href="#linearGradient4313"
       id="linearGradient3785"
       gradientUnits="userSpaceOnUse"
       gradientTransform="translate(0,1030.3622)"
       x1="26"
       y1="-1"
       x2="26"
       y2="20" />
    <linearGradient
       inkscape:collect="always"
       xlink:href="#linearGradient4313"
       id="linearGradient3787"
       gradientUnits="userSpaceOnUse"
       x1="26"
       y1="-1"
       x2="26"
       y2="20" />
    <linearGradient
       inkscape:collect="always"
       xlink:href="#linearGradient4313"
       id="linearGradient3793"
       gradientUnits="userSpaceOnUse"
       gradientTransform="translate(0,1040.3622)"
       x1="26"
       y1="-1"
       x2="26"
       y2="20" />
    <clipPath
       clipPathUnits="userSpaceOnUse"
       id="clipPath3796">
      <path
         style="opacity:0.4;color:#000000;fill:#ff00ff;fill-opacity:1;fill-rule:nonzero;stroke:none;stroke-width:1;marker:none;visibility:visible;display:inline;overflow:visible;enable-background:accumulate"
         d="m 0,1040.3622 0,22 48,0 0,-22 -48,0 z m 6,2 36,0 c 2.216,0 4,1.784 4,4 l 0,10 c 0,2.216 -1.784,4 -4,4 l -36,0 c -2.216,0 -4,-1.784 -4,-4 l 0,-10 c 0,-2.216 1.784,-4 4,-4 z"
         id="path3798"
         inkscape:connector-curvature="0" />
    </clipPath>
  </defs>
  <sodipodi:namedview
     id="base"
     pagecolor="#ffffff"
     bordercolor="#666666"
     borderopacity="1.0"
     inkscape:pageopacity="0.0"
     inkscape:pageshadow="2"
     inkscape:zoom="15.327746"
     inkscape:cx="-2.1232804"
     inkscape:cy="9.2727268"
     inkscape:document-units="px"
     inkscape:current-layer="layer1"
     showgrid="true"
     inkscape:showpageshadow="false"
     inkscape:window-width="1920"
     inkscape:window-height="1028"
     inkscape:window-x="0"
     inkscape:window-y="24"
     inkscape:window-maximized="1">
    <inkscape:grid
       type="xygrid"
       id="grid4301"
       empspacing="8"
       visible="true"
       enabled="true"
       snapvisiblegridlinesonly="true" />
  </sodipodi:namedview>
  <metadata
     id="metadata3788">
    <rdf:RDF>
      <cc:Work
         rdf:about="">
        <dc:format>image/svg+xml</dc:format>
        <dc:type
           rdf:resource="http://purl.org/dc/dcmitype/StillImage" />
        <dc:title />
      </cc:Work>
    </rdf:RDF>
  </metadata>
  <g
     inkscape:label="Calque 1"
     inkscape:groupmode="layer"
     id="layer1"
     transform="translate(0,-1022.3622)">
    <path
       style="opacity:0.2;color:#000000;fill:#32a5cf;fill-opacity:1;fill-rule:nonzero;stroke:none;stroke-width:2;marker:none;visibility:visible;display:inline;overflow:visible;enable-background:accumulate"
       d="M 3 0 C 1.338 0 -2.6111925e-18 1.338 0 3 L 0 27 C 0 28.662 1.338 30 3 30 L 45 30 C 46.662 30 48 28.662 48 27 L 48 3 C 48 1.338 46.662 -2.6111925e-18 45 0 L 3 0 z M 9.5 8 L 38.5 8 C 39.331 8 40 8.669 40 9.5 L 40 20.5 C 40 21.331 39.331 22 38.5 22 L 9.5 22 C 8.669 22 8 21.331 8 20.5 L 8 9.5 C 8 8.669 8.669 8 9.5 8 z "
       transform="translate(0,1022.3622)"
       id="rect3808" />
    <path
       style="opacity:0.15;color:#000000;fill:#000000;fill-opacity:1;fill-rule:nonzero;stroke:none;stroke-width:2;marker:none;visibility:visible;display:inline;overflow:visible;enable-background:accumulate"
       d="M 9.5 6.96875 C 8.1071515 6.96875 6.96875 8.1072 6.96875 9.5 L 6.96875 20.5 C 6.96875 21.8928 8.1071515 23.03125 9.5 23.03125 L 38.5 23.03125 C 39.892848 23.03125 41.03125 21.8928 41.03125 20.5 L 41.03125 9.5 C 41.03125 8.1072 39.892848 6.96875 38.5 6.96875 L 9.5 6.96875 z M 9.5 8 L 38.5 8 C 39.331 8 40 8.669 40 9.5 L 40 20.5 C 40 21.331 39.331 22 38.5 22 L 9.5 22 C 8.669 22 8 21.331 8 20.5 L 8 9.5 C 8 8.669 8.669 8 9.5 8 z "
       transform="translate(0,1022.3622)"
       id="path3033" />
    <rect
       style="color:#000000;fill:#282828;fill-opacity:1;fill-rule:nonzero;stroke:none;stroke-width:2;marker:none;visibility:visible;display:inline;overflow:visible;enable-background:accumulate;opacity:1"
       id="rect3030"
       width="32"
       height="14.000017"
       x="8"
       y="1030.3622"
       rx="1.5" />
    <path
       style="color:#000000;fill:#33b5e5;fill-opacity:1;fill-rule:nonzero;stroke:none;stroke-width:2;marker:none;visibility:visible;display:inline;overflow:visible;enable-background:accumulate"
       d="M 9.5 8 C 8.669 8 8 8.669 8 9.5 L 8 20.5 C 8 21.331 8.669 22 9.5 22 L 38.5 22 C 39.331 22 40 21.331 40 20.5 L 40 9.5 C 40 8.669 39.331 8 38.5 8 L 9.5 8 z M 9.5 8.96875 L 38.5 8.96875 C 38.805773 8.96875 39.03125 9.1942 39.03125 9.5 L 39.03125 20.5 C 39.03125 20.8058 38.805773 21.03125 38.5 21.03125 L 9.5 21.03125 C 9.1942267 21.03125 8.96875 20.8058 8.96875 20.5 L 8.96875 9.5 C 8.96875 9.1942 9.1942267 8.96875 9.5 8.96875 z "
       transform="translate(0,1022.3622)"
       id="rect3803" />
  </g>
</svg>
